<?xml version="1.0" encoding="UTF-8"?>
<svg width="32px" height="32px" viewBox="0 0 32 32" version="1.1" xmlns="http://www.w3.org/2000/svg" xmlns:xlink="http://www.w3.org/1999/xlink">
    <!-- Generator: Sketch 61 (89581) - https://sketch.com -->
    <title>settings</title>
    <desc>Created with Sketch.</desc>
    <g id="Page-1" stroke="none" stroke-width="1" fill="none" fill-rule="evenodd">
        <g id="Desktop-HD" transform="translate(-885.000000, -125.000000)" fill="#FFFFFF">
            <g id="Group-3" transform="translate(318.000000, 79.000000)">
                <g id="hover" transform="translate(525.000000, 15.000000)">
                    <g id="settings" transform="translate(42.000000, 31.000000)">
                        <g>
                            <g id="Group" transform="translate(0.000000, 2.285714)">
                                <path d="M6.956,0 L6.956,3.657 L1.82857143,3.65714286 C0.818679315,3.65714286 1.23676114e-16,2.83846354 0,1.82857143 C-1.23676114e-16,0.818679315 0.818679315,1.85514172e-16 1.82857143,0 L6.956,0 Z M30.1714286,0 C31.1813207,-6.29603382e-16 32,0.818679315 32,1.82857143 C32,2.83846354 31.1813207,3.65714286 30.1714286,3.65714286 L13.913,3.657 L13.913,0 L30.1714286,0 Z" id="Combined-Shape"></path>
                                <path d="M18.086,12.1142857 L18.086,15.7712857 L1.82857143,15.7714286 C0.818679315,15.7714286 1.23676114e-16,14.9527493 0,13.9428571 C-1.23676114e-16,12.932965 0.818679315,12.1142857 1.82857143,12.1142857 L18.086,12.1142857 Z M30.1714286,12.1142857 C31.1813207,12.1142857 32,12.932965 32,13.9428571 C32,14.9527493 31.1813207,15.7714286 30.1714286,15.7714286 L25.043,15.7712857 L25.043,12.1142857 L30.1714286,12.1142857 Z" id="Combined-Shape"></path>
                                <path d="M5.101,24.2285714 L5.101,27.8855714 L1.82857143,27.8857143 C0.818679315,27.8857143 1.23676114e-16,27.067035 0,26.0571429 C-1.23676114e-16,25.0472507 0.818679315,24.2285714 1.82857143,24.2285714 L5.101,24.2285714 Z M30.1714286,24.2285714 C31.1813207,24.2285714 32,25.0472507 32,26.0571429 C32,27.067035 31.1813207,27.8857143 30.1714286,27.8857143 L12.057,27.8855714 L12.057,24.2285714 L30.1714286,24.2285714 Z" id="Combined-Shape"></path>
                            </g>
                            <rect id="Rectangle" x="8.34782609" y="0" width="4.17391304" height="7.31428571" rx="2.08695652"></rect>
                            <rect id="Rectangle-Copy-5" x="19.4782609" y="12.3428571" width="4.17391304" height="7.31428571" rx="2.08695652"></rect>
                            <rect id="Rectangle-Copy-6" x="6.49275362" y="24.6857143" width="4.17391304" height="7.31428571" rx="2.08695652"></rect>
                        </g>
                    </g>
                </g>
            </g>
        </g>
    </g>
</svg>