<?xml version="1.0" encoding="UTF-8"?>
<svg width="48px" height="50px" viewBox="0 0 48 50" version="1.1" xmlns="http://www.w3.org/2000/svg" xmlns:xlink="http://www.w3.org/1999/xlink">
    <!-- Generator: Sketch 61 (89581) - https://sketch.com -->
    <title>Trash_font_awesome</title>
    <desc>Created with Sketch.</desc>
    <defs>
        <filter x="-7.6%" y="-6.7%" width="115.2%" height="113.4%" filterUnits="objectBoundingBox" id="filter-1">
            <feOffset dx="10" dy="10" in="SourceAlpha" result="shadowOffsetOuter1"></feOffset>
            <feGaussianBlur stdDeviation="2" in="shadowOffsetOuter1" result="shadowBlurOuter1"></feGaussianBlur>
            <feColorMatrix values="0 0 0 0 0   0 0 0 0 0   0 0 0 0 0  0 0 0 0.184222028 0" type="matrix" in="shadowBlurOuter1" result="shadowMatrixOuter1"></feColorMatrix>
            <feMerge>
                <feMergeNode in="shadowMatrixOuter1"></feMergeNode>
                <feMergeNode in="SourceGraphic"></feMergeNode>
            </feMerge>
        </filter>
    </defs>
    <g id="Page-1" stroke="none" stroke-width="1" fill="none" fill-rule="evenodd">
        <g id="Desktop-HD" transform="translate(-1135.000000, -580.000000)" fill="#D8D8D8" fill-rule="nonzero">
            <g id="Settings" filter="url(#filter-1)" transform="translate(842.000000, 559.000000)">
                <g id="Trash_font_awesome" transform="translate(293.000000, 21.000000)">
                    <path d="M12.3636364,21.75 L12.3636364,8.25 C12.3636364,8.03125 12.2911932,7.8515625 12.1463068,7.7109375 C12.0014205,7.5703125 11.8162879,7.5 11.5909091,7.5 L10.0454545,7.5 C9.82007576,7.5 9.63494318,7.5703125 9.49005682,7.7109375 C9.34517045,7.8515625 9.27272727,8.03125 9.27272727,8.25 L9.27272727,21.75 C9.27272727,21.96875 9.34517045,22.1484375 9.49005682,22.2890625 C9.63494318,22.4296875 9.82007576,22.5 10.0454545,22.5 L11.5909091,22.5 C11.8162879,22.5 12.0014205,22.4296875 12.1463068,22.2890625 C12.2911932,22.1484375 12.3636364,21.96875 12.3636364,21.75 Z M18.5454545,21.75 L18.5454545,8.25 C18.5454545,8.03125 18.4730114,7.8515625 18.328125,7.7109375 C18.1832386,7.5703125 17.9981061,7.5 17.7727273,7.5 L16.2272727,7.5 C16.0018939,7.5 15.8167614,7.5703125 15.671875,7.7109375 C15.5269886,7.8515625 15.4545455,8.03125 15.4545455,8.25 L15.4545455,21.75 C15.4545455,21.96875 15.5269886,22.1484375 15.671875,22.2890625 C15.8167614,22.4296875 16.0018939,22.5 16.2272727,22.5 L17.7727273,22.5 C17.9981061,22.5 18.1832386,22.4296875 18.328125,22.2890625 C18.4730114,22.1484375 18.5454545,21.96875 18.5454545,21.75 Z M24.7272727,21.75 L24.7272727,8.25 C24.7272727,8.03125 24.6548295,7.8515625 24.5099432,7.7109375 C24.3650568,7.5703125 24.1799242,7.5 23.9545455,7.5 L22.4090909,7.5 C22.1837121,7.5 21.9985795,7.5703125 21.8536932,7.7109375 C21.7088068,7.8515625 21.6363636,8.03125 21.6363636,8.25 L21.6363636,21.75 C21.6363636,21.96875 21.7088068,22.1484375 21.8536932,22.2890625 C21.9985795,22.4296875 22.1837121,22.5 22.4090909,22.5 L23.9545455,22.5 C24.1799242,22.5 24.3650568,22.4296875 24.5099432,22.2890625 C24.6548295,22.1484375 24.7272727,21.96875 24.7272727,21.75 Z M27.8181818,4.78125 L27.8181818,27 L6.18181818,27 L6.18181818,4.78125 C6.18181818,4.4375 6.23816288,4.12109375 6.35085227,3.83203125 C6.46354167,3.54296875 6.58025568,3.33203125 6.70099432,3.19921875 C6.82173295,3.06640625 6.90625,3 6.95454545,3 L27.0454545,3 C27.09375,3 27.178267,3.06640625 27.2990057,3.19921875 C27.4197443,3.33203125 27.5364583,3.54296875 27.6491477,3.83203125 C27.7618371,4.12109375 27.8181818,4.4375 27.8181818,4.78125 Z M11.5909091,30 L22.4090909,30 L21.25,32.7421875 C21.1373106,32.8828125 21.0004735,32.96875 20.8394886,33 L13.1846591,33 C13.0236742,32.96875 12.8868371,32.8828125 12.7741477,32.7421875 L11.5909091,30 Z M34,29.25 L34,27.75 C34,27.53125 33.9275568,27.3515625 33.7826705,27.2109375 C33.6377841,27.0703125 33.4526515,27 33.2272727,27 L30.9090909,27 L30.9090909,4.78125 C30.9090909,3.484375 30.5307765,2.36328125 29.7741477,1.41796875 C29.0175189,0.47265625 28.1079545,0 27.0454545,0 L6.95454545,0 C5.89204545,0 4.98248106,0.45703125 4.22585227,1.37109375 C3.46922348,2.28515625 3.09090909,3.390625 3.09090909,4.6875 L3.09090909,27 L0.772727273,27 C0.547348485,27 0.362215909,27.0703125 0.217329545,27.2109375 C0.0724431818,27.3515625 0,27.53125 0,27.75 L0,29.25 C0,29.46875 0.0724431818,29.6484375 0.217329545,29.7890625 C0.362215909,29.9296875 0.547348485,30 0.772727273,30 L8.234375,30 L9.92471591,33.9140625 C10.1661932,34.4921875 10.6008523,34.984375 11.2286932,35.390625 C11.8565341,35.796875 12.4924242,36 13.1363636,36 L20.8636364,36 C21.5075758,36 22.1434659,35.796875 22.7713068,35.390625 C23.3991477,34.984375 23.8338068,34.4921875 24.0752841,33.9140625 L25.765625,30 L33.2272727,30 C33.4526515,30 33.6377841,29.9296875 33.7826705,29.7890625 C33.9275568,29.6484375 34,29.46875 34,29.25 Z" id="path3745" transform="translate(17.000000, 18.000000) scale(-1, -1) translate(-17.000000, -18.000000) "></path>
                </g>
            </g>
        </g>
    </g>
</svg>